<svg xmlns="http://www.w3.org/2000/svg" version="1.1" width="980" height="220" viewBox="0 0 980 220" role="img" aria-labelledby="ivo-tech-logo-title">
<title id="ivo-tech-logo-title">ivo-tech Logo</title>
<path transform="matrix(1,0,0,-1,40,36)" d="M0 0H108L99-29 69-36 36-34Z" fill="#e8edf3"/>
<path transform="matrix(1,0,0,-1,40,36)" d="M0 0 36-34 80-113 69-36Z" fill="#151b24"/>
<path transform="matrix(1,0,0,-1,109,72)" d="M0 0 30 7 11-77Z" fill="#6f7a88"/>
<path transform="matrix(1,0,0,-1,164,36)" d="M0 0H92L-6-36H-20Z" fill="#eef3f8"/>
<path transform="matrix(1,0,0,-1,139,65)" d="M0 0 19-7 5-70-19-84Z" fill="#dce6f2"/>
<path transform="matrix(1,0,0,-1,144,135)" d="M0 0 142 99-8-50V-13Z" fill="#c8d0da"/>
<path transform="matrix(1,0,0,-1,120,149)" d="M0 0 24 14 16-36Z" fill="#1b222c"/>
<path transform="matrix(1,0,0,-1,162,82)" d="M0 0 124 46-18-53Z" fill="#00b7ff"/>
<path transform="matrix(1,0,0,-1,173,84)" d="M0 0 93 38-13-34Z" fill="#7be7ff"/>
<path transform="matrix(1,0,0,-1,346.72,78.72)" d="M0 0V0C3.711 0 6.72-3.009 6.72-6.72V-62.4C6.72-66.111 3.711-69.12 0-69.12-3.711-69.12-6.72-66.111-6.72-62.4V-6.72C-6.72-3.009-3.711 0 0 0" fill="#dce6f2"/>
<path transform="matrix(1,0,0,-1,344.8,55.679994)" d="M0 0H3.84C6.491 0 8.64-2.149 8.64-4.8V-8.64C8.64-11.291 6.491-13.44 3.84-13.44H0C-2.651-13.44-4.8-11.291-4.8-8.64V-4.8C-4.8-2.149-2.651 0 0 0" fill="#00b7ff"/>
<path transform="matrix(1,0,0,-1,372.64,78.72)" d="M0 0H15.36L36.48-51.84 57.6 0H72.96L44.16-69.12H28.8Z" fill="#dce6f2"/>
<path transform="matrix(1,0,0,-1,473.44,92.16)" d="M0 0C-7.68 0-11.52-3.84-11.52-11.52V-30.72C-11.52-38.4-7.68-42.24 0-42.24H36.48C44.16-42.24 48-38.4 48-30.72V-11.52C48-3.84 44.16 0 36.48 0ZM-6.72 13.44H43.2C56 13.44 62.4 7.04 62.4-5.76V-36.48C62.4-49.28 56-55.68 43.2-55.68H-6.72C-19.52-55.68-25.92-49.28-25.92-36.48V-5.76C-25.92 7.04-19.52 13.44-6.72 13.44" fill="#dce6f2" fill-rule="evenodd"/>
<path transform="matrix(1,0,0,-1,555.04,108.48)" d="M0 0H49.92L40.32-13.44H-9.6Z" fill="#00b7ff"/>
<path transform="matrix(1,0,0,-1,631.84,61.440004)" d="M0 0H13.44V-17.28H44.16L36.48-30.72H13.44V-65.28C13.44-70.4 16-72.96 21.12-72.96H38.4V-86.4H16.32C5.44-86.4 0-80.96 0-70.08V-30.72H-19.2V-17.28H0Z" fill="#dce6f2"/>
<path transform="matrix(1,0,0,-1,723.04,92.16)" d="M0 0C-7.68 0-11.52-3.84-11.52-11.52V-12.48H30.72V-10.56C30.72-3.52 26.88 0 19.2 0ZM-22.08 13.44H25.92C38.72 13.44 45.12 7.04 45.12-5.76V-23.04H-11.52V-30.72C-11.52-38.4-7.68-42.24 0-42.24H41.28V-55.68H-6.72C-19.52-55.68-25.92-49.28-25.92-36.48V-5.76C-25.92 7.04-24.64 13.44-22.08 13.44" fill="#dce6f2" fill-rule="evenodd"/>
<path transform="matrix(1,0,0,-1,806.56,78.72)" d="M0 0H48V-13.44H6.72C-.96-13.44-4.8-17.28-4.8-24.96V-44.16C-4.8-51.84-.96-55.68 6.72-55.68H48V-69.12H0C-12.8-69.12-19.2-62.72-19.2-49.92V-19.2C-19.2-6.4-12.8 0 0 0" fill="#dce6f2"/>
<path transform="matrix(1,0,0,-1,875.68,55.679994)" d="M0 0H13.44V-30.72C18.56-25.6 25.6-23.04 34.56-23.04H55.68C67.2-23.04 72.96-28.8 72.96-40.32V-92.16H59.52V-46.08C59.52-39.68 56.32-36.48 49.92-36.48H30.72C19.2-36.48 13.44-42.24 13.44-53.76V-92.16H0Z" fill="#dce6f2"/>
</svg>
